<?xml version="1.0" standalone="no"?>
<!DOCTYPE svg PUBLIC "-//W3C//DTD SVG 20010904//EN"
 "http://www.w3.org/TR/2001/REC-SVG-20010904/DTD/svg10.dtd">
<svg version="1.0" xmlns="http://www.w3.org/2000/svg"
 width="613.000000pt" height="541.000000pt" viewBox="0 0 613.000000 541.000000"
 preserveAspectRatio="xMidYMid meet">

<g transform="translate(0.000000,541.000000) scale(0.100000,-0.100000)"
fill="#000000" stroke="none">
<path d="M3353 4288 c-18 -29 -133 -87 -223 -113 -14 -4 -126 -11 -250 -15
-193 -6 -236 -10 -302 -30 -43 -13 -75 -27 -72 -32 3 -5 0 -8 -7 -6 -14 3
-129 -40 -139 -51 -3 -3 -10 -7 -17 -8 -12 -3 -174 -102 -183 -113 -3 -3 -21
-17 -40 -30 -39 -28 -44 -32 -131 -116 -76 -74 -115 -118 -149 -167 -14 -20
-28 -37 -32 -37 -5 0 -8 -4 -8 -9 0 -5 -22 -45 -48 -88 -47 -76 -70 -120 -110
-213 -73 -172 -105 -356 -99 -570 4 -162 10 -215 37 -327 45 -189 169 -435
295 -583 54 -64 200 -205 241 -233 22 -15 50 -36 62 -47 12 -11 23 -20 26 -20
3 0 22 -11 42 -25 62 -42 236 -121 327 -149 48 -15 95 -30 104 -33 15 -6 15
-3 -3 23 -31 47 -44 68 -51 84 -4 8 -9 17 -13 20 -10 8 -46 100 -64 162 -16
56 -22 220 -10 266 5 17 10 20 19 12 8 -6 21 -10 30 -8 14 3 16 -13 18 -124 2
-85 6 -131 15 -140 6 -6 12 -19 12 -27 0 -22 55 -125 99 -186 33 -47 97 -114
154 -161 81 -67 272 -134 384 -134 70 0 191 24 253 51 l52 22 -67 34 c-87 43
-147 87 -216 160 -171 180 -252 431 -203 628 5 21 10 23 37 18 18 -3 33 -6 34
-7 1 -1 -3 -35 -8 -76 -16 -111 20 -264 82 -358 16 -24 29 -46 29 -50 0 -4 18
-27 41 -52 22 -25 48 -55 56 -68 9 -13 22 -21 30 -18 8 3 12 2 9 -3 -3 -4 3
-16 14 -26 18 -17 22 -17 87 1 72 19 255 108 337 164 110 75 217 168 295 258
58 66 171 224 171 239 0 6 3 13 8 15 16 7 85 164 123 282 54 168 64 236 64
436 0 143 -4 207 -19 282 -11 53 -22 95 -25 93 -3 -1 -7 9 -8 25 -3 36 -69
204 -101 255 -14 22 -25 41 -24 43 2 2 -10 23 -55 94 -12 21 -23 40 -23 43 0
16 -146 187 -196 230 -128 110 -154 125 -286 169 -96 33 -133 33 -152 4 -37
-59 -58 -213 -44 -327 21 -174 74 -273 238 -441 143 -147 183 -232 183 -396 0
-95 -13 -151 -45 -197 -11 -15 -17 -35 -14 -43 3 -8 2 -13 -3 -10 -5 3 -20 -5
-34 -18 -66 -62 -193 -91 -326 -76 -90 10 -156 24 -196 42 -32 14 -127 68
-135 78 -3 3 -25 21 -50 39 -25 19 -49 41 -53 48 -5 7 -13 10 -19 7 -7 -4 -8
-2 -4 4 4 7 -8 28 -28 48 -20 21 -36 41 -36 46 0 5 -9 21 -20 36 -11 15 -34
70 -51 122 -51 156 -50 318 2 460 27 74 79 170 92 170 6 0 24 -11 41 -24 45
-34 92 -56 101 -48 5 4 5 2 2 -4 -7 -13 44 -34 135 -57 47 -12 60 -13 75 -2
25 19 3 41 -48 49 -92 15 -233 72 -265 107 -17 19 -17 20 4 41 20 20 22 21 64
5 90 -33 229 -50 250 -29 23 23 -10 39 -90 47 -84 7 -150 20 -160 30 -3 3 21
32 53 63 33 32 67 67 75 78 31 41 82 154 76 169 -3 9 -2 14 3 11 10 -7 31 125
30 187 -1 55 -21 129 -36 134 -6 2 -15 -2 -20 -9z m-405 -301 c21 -21 32 -90
16 -104 -6 -7 -14 -17 -16 -23 -2 -6 -21 -14 -43 -17 -56 -7 -95 24 -95 76 0
39 12 62 45 80 25 13 73 7 93 -12z m649 -2601 c0 -8 -6 -12 -15 -9 -11 5 -11
7 0 14 7 5 13 9 14 9 0 0 1 -6 1 -14z"/>
<path d="M4600 4073 c-25 -9 -47 -20 -48 -25 -2 -4 -8 -6 -12 -3 -20 13 -187
-100 -245 -164 -16 -19 -35 -39 -40 -45 -6 -6 -25 -35 -44 -63 l-33 -53 39
-47 c65 -79 91 -118 140 -211 18 -33 37 -63 43 -67 6 -3 8 -10 5 -15 -3 -5 8
-33 24 -62 16 -29 32 -70 35 -90 4 -22 13 -38 20 -38 8 0 45 31 84 70 195 195
259 465 171 722 -39 111 -53 121 -139 91z"/>
<path d="M1570 2129 c0 -46 -191 -283 -253 -316 -18 -8 -34 -19 -37 -22 -10
-13 -76 -47 -118 -61 -54 -17 -61 -27 -25 -40 15 -6 35 -13 43 -17 8 -3 18 -5
23 -5 4 1 7 -2 7 -7 0 -5 41 -19 91 -31 160 -40 348 -16 485 61 l51 29 -33 37
c-19 20 -34 40 -34 44 0 5 -11 20 -25 35 -14 15 -25 33 -25 40 0 8 -4 14 -8
14 -4 0 -15 15 -24 33 -8 17 -34 68 -57 112 -22 44 -41 86 -41 93 0 6 -4 12
-10 12 -5 0 -10 -5 -10 -11z"/>
</g>
</svg>
