<svg width="213" height="112" viewBox="0 0 213 112" fill="none" xmlns="http://www.w3.org/2000/svg">
<mask id="mask0_3306_34195" style="mask-type:alpha" maskUnits="userSpaceOnUse" x="0" y="0" width="213" height="112">
<path d="M160.305 59.4169C165.968 52.5761 169.867 48.1627 172 46.1767C177.37 41.1748 182.408 38.6738 187.116 38.6738C189.176 38.6738 190.904 39.3358 192.302 40.6599C193.773 41.9103 194.509 43.5654 194.509 45.625C194.509 49.0822 192.044 54.1208 187.116 60.741C182.261 67.2875 179.834 71.8113 179.834 74.3122C179.834 76.0776 180.68 76.9603 182.372 76.9603C184.431 76.9603 187.521 75.0478 191.64 71.2229C194.876 68.2806 198.628 64.3085 202.894 59.3066C203.483 58.571 206.131 55.3713 210.838 49.7074L212.273 50.3694C209.257 54.1208 206.241 57.8722 203.225 61.6236C198.812 66.8462 194.876 70.8551 191.419 73.6502C186.785 77.4016 182.666 79.2773 179.062 79.2773C176.634 79.2773 174.648 78.6521 173.103 77.4016C171.632 76.0776 170.897 74.2019 170.897 71.7745C170.897 68.538 172.441 64.7498 175.531 60.41C182.225 50.9946 185.571 45.5514 185.571 44.0803C185.571 43.4183 185.277 42.8666 184.689 42.4252C184.174 41.9103 183.549 41.6529 182.813 41.6529C178.694 41.6529 172.625 46.6548 164.608 56.6585C158.135 64.7498 153.317 71.8481 150.154 77.9533L138.789 78.2843L161.739 40.3289L174.427 39.8875L160.305 59.6376V59.4169Z" fill="#EF6820"/>
<path d="M119.922 69.4594C117.201 72.4753 114.516 74.7923 111.868 76.4106C108.558 78.3966 105.211 79.3896 101.827 79.3896C99.0322 79.3896 96.8255 78.3966 95.2072 76.4106C93.589 74.4245 92.7799 71.9604 92.7799 69.0181C92.7799 61.9566 95.9796 55.1158 102.379 48.4956C108.779 41.8755 115.509 38.5654 122.57 38.5654C125.219 38.5654 127.388 39.0803 129.08 40.1101C130.772 41.0664 131.986 42.7582 132.721 45.1856L134.928 40.9928L146.403 40.3308C143.828 44.7442 141.254 49.1576 138.68 53.5711C136.179 57.9845 133.678 62.3611 131.177 66.701C128.749 71.0409 126.138 75.4543 123.343 79.9413C130.478 77.8081 137.355 73.7625 143.976 67.8044C149.051 63.2438 154.347 57.1386 159.864 49.4887L160.967 49.93C155.598 57.8006 150.044 64.2736 144.307 69.3491C137.392 75.4543 130.037 79.6471 122.239 81.9273C117.017 90.9749 110.617 98.0363 103.041 103.112C94.8762 108.629 85.8655 111.387 76.0089 111.387C70.4921 111.387 66.0419 110.467 62.6582 108.629C58.3184 106.275 56.1484 102.56 56.1484 97.4847C56.1484 93.8068 57.6564 90.8277 60.6722 88.5475C63.6145 86.2672 66.9981 85.1271 70.8231 85.1271C72.1471 85.1271 73.324 85.2006 74.3538 85.3477C75.3101 85.4949 76.1192 85.6052 76.7812 85.6788V86.8924C73.2505 86.8924 70.4921 87.8487 68.506 89.7612C66.4464 91.7472 65.4166 94.4688 65.4166 97.926C65.4166 101.236 66.5568 104.031 68.837 106.312C71.1173 108.592 73.9125 109.732 77.2225 109.732C83.1071 109.732 88.9917 107.305 94.8762 102.45C99.4368 98.6984 104.181 93.2919 109.11 86.2304C109.33 85.9362 112.935 80.3459 119.922 69.4594ZM108.889 75.3072C113.008 75.3072 117.458 71.519 122.239 63.9426C126.653 56.8811 128.86 51.1069 128.86 46.6199C128.86 44.8546 128.565 43.3834 127.977 42.2065C127.388 40.956 126.285 40.3308 124.667 40.3308C119.739 40.3308 114.884 43.788 110.103 50.7023C105.616 57.1754 103.372 63.0232 103.372 68.2457C103.372 70.526 103.74 72.2914 104.475 73.5418C105.285 74.7187 106.756 75.3072 108.889 75.3072Z" fill="#EF6820"/>
<path d="M91.8895 40.3296C84.7545 51.2896 81.0766 56.9167 80.8559 57.2109C75.4127 66.0378 72.6911 71.6649 72.6911 74.0923C72.6911 75.1221 72.8014 75.8577 73.0221 76.299C73.3163 76.6668 73.7577 76.8507 74.3461 76.8507C77.7298 76.8507 83.1362 73.0625 90.5655 65.4861C94.1698 61.8818 98.951 56.5121 104.909 49.3771L106.233 50.2598C103.732 53.7905 100.643 57.5419 96.9649 61.514C92.478 66.4424 88.1013 70.488 83.835 73.6509C78.7596 77.4759 74.6036 79.3884 71.3671 79.3884C69.1604 79.3884 67.3214 78.7632 65.8503 77.5127C64.4527 76.1887 63.7539 74.4601 63.7539 72.3269C63.7539 69.3111 65.9974 64.015 70.4844 56.4386C70.6315 56.2179 73.9416 51.0321 80.4146 40.8813L91.8895 40.3296ZM103.033 21.7932C103.033 23.3379 102.445 24.6987 101.268 25.8756C100.091 27.0525 98.6935 27.641 97.0753 27.641C95.457 27.641 94.0594 27.1996 92.8825 26.3169C91.7792 25.3607 91.2275 24.0735 91.2275 22.4552C91.2275 20.8369 91.8895 19.4394 93.2135 18.2624C94.5376 17.0855 96.0455 16.4971 97.7373 16.4971C99.0613 16.4971 100.275 17.012 101.378 18.0418C102.482 19.0716 103.033 20.322 103.033 21.7932Z" fill="#EF6820"/>
<path d="M9.23112 48.3848C10.7023 48.3848 12.0263 48.8629 13.2032 49.8191C14.4537 50.7018 15.0789 51.8787 15.0789 53.3499C15.0789 55.1152 14.3801 56.6231 12.9825 57.8736C11.6585 59.0505 10.1138 59.639 8.34843 59.639C7.75997 61.625 7.46575 63.5743 7.46575 65.4868C7.46575 69.8266 9.52535 73.1367 13.6445 75.417C17.0282 77.2559 21.0738 78.1754 25.7815 78.1754C37.1093 78.1754 44.3914 71.5185 47.6279 58.2046C49.6875 45.7735 51.7471 33.3423 53.8067 20.9112C57.6317 7.52378 65.9069 0.830078 78.6322 0.830078C82.8986 0.830078 86.4293 1.63921 89.2245 3.25746C92.7552 5.31706 94.5206 8.33291 94.5206 12.305C94.5206 15.6151 93.1598 18.0792 90.4382 19.6975C88.2314 21.0215 85.3627 21.6835 81.832 21.6835C82.7147 19.9917 83.4502 18.2631 84.0387 16.4977C84.7007 14.6588 85.0317 12.8934 85.0317 11.2016C85.0317 8.84781 84.3329 6.82499 82.9353 5.13317C81.5378 3.44136 79.662 2.59545 77.3082 2.59545C69.3641 2.59545 64.4725 9.25237 62.6336 22.5662C59.4706 45.1482 57.4478 57.5794 56.5651 59.8597C51.4161 73.247 40.971 79.9408 25.2298 79.9408C18.5361 79.9408 12.8354 78.2489 8.12776 74.8653C2.83165 71.0403 0.183594 65.8546 0.183594 59.308C0.183594 56.3657 0.955943 53.828 2.50064 51.6948C4.04534 49.4881 6.28883 48.3848 9.23112 48.3848Z" fill="#EF6820"/>
</mask>
<g mask="url(#mask0_3306_34195)">
<path d="M239.28 -15.9004L-26.2539 -13.2981L-15.1715 119.471L119.416 204.289L106.011 64.652L239.28 -15.9004Z" fill="#EF6820"/>
<path d="M238.672 -14.6367L78.8561 3.18801L105.81 113.305H238.672V-14.6367Z" fill="#EF6820"/>
</g>
</svg>
